<svg width="27" height="23" viewBox="0 0 27 23" fill="none" xmlns="http://www.w3.org/2000/svg">
  <path d="M0.834262 3.68348C0.479709 3.15698 0.85697 2.4481 1.49172 2.4481L4.83194 2.4481C5.09553 2.4481 5.34187 2.57913 5.4892 2.7977L15.5076 17.6607C15.6877 17.9279 15.6881 18.2776 15.5086 18.5453L13.8369 21.037C13.5232 21.5046 12.8357 21.5052 12.5212 21.0381L0.834262 3.68348Z" fill="#111827"/>
  <path d="M25.4809 3.68238C25.8339 3.15576 25.4565 2.44844 24.8225 2.44844L21.4463 2.44845C21.1822 2.44846 20.9355 2.57995 20.7883 2.79916L14.5692 12.0589C14.3884 12.3282 14.3898 12.6804 14.5729 12.9482L16.2841 15.4516C16.6006 15.9146 17.2847 15.9114 17.5969 15.4456L25.4809 3.68238Z" fill="#111827"/>
  <path d="M13.3167 1.26011C14.2178 1.28248 15.078 1.6504 15.717 2.28941C16.3729 2.94539 16.7423 3.83391 16.7463 4.76109C16.7998 5.63505 16.3844 6.52052 15.9749 7.19468C15.5661 7.86759 15.0559 8.48738 14.9231 8.6771C14.7443 8.93258 14.4175 9.37234 14.1399 9.74253C14.0002 9.92875 13.8715 10.0998 13.7776 10.224C13.7306 10.2861 13.6918 10.3374 13.6653 10.3724C13.6522 10.3897 13.642 10.4033 13.635 10.4125C13.6315 10.4171 13.628 10.4208 13.6262 10.4232C13.6255 10.4241 13.6247 10.4246 13.6243 10.4252V10.4261C13.5283 10.5523 13.3882 10.7243 13.2297 10.7211C13.0712 10.7176 12.9129 10.5389 12.8225 10.4086L12.8215 10.4076C12.8209 10.4067 12.8198 10.4054 12.8186 10.4037C12.8162 10.4001 12.8126 10.3948 12.8079 10.388C12.7984 10.3745 12.7844 10.3548 12.7668 10.3294C12.7315 10.2785 12.6811 10.2052 12.6204 10.1175C12.4989 9.94226 12.3362 9.70787 12.1721 9.47105C11.8468 9.00147 11.5078 8.51115 11.4797 8.4691C11.1932 8.03935 10.7543 7.41927 10.3958 6.7855C10.0463 6.16781 9.71224 5.43703 9.71216 4.77671C9.71216 3.84386 10.0828 2.94904 10.7424 2.28941C11.4021 1.62978 12.2969 1.25914 13.2297 1.25914L13.3167 1.26011ZM13.2786 3.24058C12.5127 3.24081 11.8918 3.86234 11.8918 4.62828C11.8921 5.39401 12.5128 6.01477 13.2786 6.015C14.0445 6.015 14.666 5.39416 14.6663 4.62828C14.6663 3.8622 14.0446 3.24058 13.2786 3.24058Z" fill="#111827"/>
</svg>
